<?xml version="1.0"?>
<svg width="100" height="100" xmlns="http://www.w3.org/2000/svg" xmlns:svg="http://www.w3.org/2000/svg" enable-background="new 0 0 100 100" xml:space="preserve">
 <g class="layer">
  <title>Layer 1</title>
  <path d="m93.03,36.64l-85.35,0c-1.81,0 -3.28,1.48 -3.28,3.28l0,49.24c0,5.42 4.43,9.85 9.85,9.85l72.22,0c5.42,0 9.85,-4.43 9.85,-9.85l0,-49.24c0,-1.81 -1.48,-3.28 -3.28,-3.28zm-59.09,45.96c0,1.81 -1.48,3.28 -3.28,3.28l-6.57,0c-1.81,0 -3.28,-1.48 -3.28,-3.28l0,-6.57c0,-1.81 1.48,-3.28 3.28,-3.28l6.57,0c1.81,0 3.28,1.48 3.28,3.28l0,6.57zm22.98,0c0,1.81 -1.48,3.28 -3.28,3.28l-6.57,0c-1.81,0 -3.28,-1.48 -3.28,-3.28l0,-6.57c0,-1.81 1.48,-3.28 3.28,-3.28l6.57,0c1.81,0 3.28,1.48 3.28,3.28l0,6.57zm0,-22.98c0,1.81 -1.48,3.28 -3.28,3.28l-6.57,0c-1.81,0 -3.28,-1.48 -3.28,-3.28l0,-6.57c0,-1.81 1.48,-3.28 3.28,-3.28l6.57,0c1.81,0 3.28,1.48 3.28,3.28l0,6.57zm22.98,0c0,1.81 -1.48,3.28 -3.28,3.28l-6.57,0c-1.81,0 -3.28,-1.48 -3.28,-3.28l0,-6.57c0,-1.81 1.48,-3.28 3.28,-3.28l6.57,0c1.81,0 3.28,1.48 3.28,3.28l0,6.57zm6.57,-49.24l-8.21,0l0,-3.28c0,-3.61 -2.95,-6.57 -6.57,-6.57s-6.57,2.95 -6.57,6.57l0,3.28l-29.54,0l0,-3.28c0,-3.61 -2.95,-6.57 -6.57,-6.57s-6.57,2.95 -6.57,6.57l0,3.28l-8.21,0c-5.42,0 -9.85,4.43 -9.85,9.85l0,3.28c0,1.81 1.48,3.28 3.28,3.28l85.35,0c1.81,0 3.28,-1.48 3.28,-3.28l0,-3.28c0,-5.42 -4.43,-9.85 -9.85,-9.85z" id="svg_1"/>
 </g>
</svg>